<svg width="110" height="32" viewBox="0 0 110 32" fill="none" xmlns="http://www.w3.org/2000/svg">
<rect width="110" height="32" rx="4" fill="#EFEFEF"/>
<path d="M20.0013 14C20.5317 14 21.0404 14.2107 21.4155 14.5858C21.7906 14.9609 22.0013 15.4696 22.0013 16C22.0013 16.5304 21.7906 17.0391 21.4155 17.4142C21.0404 17.7893 20.5317 18 20.0013 18C19.4709 18 18.9622 17.7893 18.5871 17.4142C18.212 17.0391 18.0013 16.5304 18.0013 16C18.0013 15.4696 18.212 14.9609 18.5871 14.5858C18.9622 14.2107 19.4709 14 20.0013 14ZM20.0013 11C23.3346 11 26.1813 13.0733 27.3346 16C26.1813 18.9267 23.3346 21 20.0013 21C16.668 21 13.8213 18.9267 12.668 16C13.8213 13.0733 16.668 11 20.0013 11ZM14.1213 16C14.6601 17.1002 15.4968 18.0272 16.5363 18.6755C17.5757 19.3238 18.7762 19.6675 20.0013 19.6675C21.2264 19.6675 22.4269 19.3238 23.4663 18.6755C24.5058 18.0272 25.3425 17.1002 25.8813 16C25.3425 14.8998 24.5058 13.9728 23.4663 13.3245C22.4269 12.6762 21.2264 12.3325 20.0013 12.3325C18.7762 12.3325 17.5757 12.6762 16.5363 13.3245C15.4968 13.9728 14.6601 14.8998 14.1213 16Z" fill="#4397FA"/>
<path d="M36.8608 20V11.2727H38.4418V14.9673H42.4858V11.2727H44.071V20H42.4858V16.2926H38.4418V20H36.8608ZM45.7223 20V13.4545H47.2649V20H45.7223ZM46.4979 12.5256C46.2536 12.5256 46.0433 12.4446 45.8672 12.2827C45.6911 12.1179 45.603 11.9205 45.603 11.6903C45.603 11.4574 45.6911 11.2599 45.8672 11.098C46.0433 10.9332 46.2536 10.8509 46.4979 10.8509C46.745 10.8509 46.9553 10.9332 47.1286 11.098C47.3047 11.2599 47.3928 11.4574 47.3928 11.6903C47.3928 11.9205 47.3047 12.1179 47.1286 12.2827C46.9553 12.4446 46.745 12.5256 46.4979 12.5256ZM51.2802 20.1151C50.766 20.1151 50.3058 19.983 49.8995 19.7188C49.4933 19.4545 49.1722 19.071 48.9364 18.5682C48.7006 18.0653 48.5827 17.4545 48.5827 16.7358C48.5827 16.0085 48.7021 15.3949 48.9407 14.8949C49.1822 14.392 49.5075 14.0128 49.9165 13.7571C50.3256 13.4986 50.7816 13.3693 51.2844 13.3693C51.668 13.3693 51.9833 13.4347 52.2305 13.5653C52.4776 13.6932 52.6737 13.848 52.8185 14.0298C52.9634 14.2088 53.0756 14.3778 53.1552 14.5369H53.2191V11.2727H54.766V20H53.2489V18.9688H53.1552C53.0756 19.1278 52.9606 19.2969 52.81 19.4759C52.6594 19.652 52.4606 19.8026 52.2134 19.9276C51.9663 20.0526 51.6552 20.1151 51.2802 20.1151ZM51.7106 18.8494C52.0373 18.8494 52.3157 18.7614 52.5458 18.5852C52.7759 18.4062 52.9506 18.1577 53.07 17.8395C53.1893 17.5213 53.2489 17.1506 53.2489 16.7273C53.2489 16.304 53.1893 15.9361 53.07 15.6236C52.9535 15.3111 52.7802 15.0682 52.5501 14.8949C52.3228 14.7216 52.043 14.6349 51.7106 14.6349C51.3668 14.6349 51.0799 14.7244 50.8498 14.9034C50.6197 15.0824 50.4464 15.3295 50.3299 15.6449C50.2134 15.9602 50.1552 16.321 50.1552 16.7273C50.1552 17.1364 50.2134 17.5014 50.3299 17.8224C50.4492 18.1406 50.6239 18.392 50.854 18.5767C51.087 18.7585 51.3725 18.8494 51.7106 18.8494ZM59.3075 20.1278C58.6513 20.1278 58.0845 19.9915 57.6072 19.7188C57.1328 19.4432 56.7678 19.054 56.5121 18.5511C56.2564 18.0455 56.1286 17.4503 56.1286 16.7656C56.1286 16.0923 56.2564 15.5014 56.5121 14.9929C56.7706 14.4815 57.1314 14.0838 57.5945 13.7997C58.0575 13.5128 58.6016 13.3693 59.2266 13.3693C59.63 13.3693 60.0107 13.4347 60.3686 13.5653C60.7294 13.6932 61.0476 13.892 61.3232 14.1619C61.6016 14.4318 61.8203 14.7756 61.9794 15.1932C62.1385 15.608 62.218 16.1023 62.218 16.6761V17.1491H56.853V16.1094H60.7393C60.7365 15.8139 60.6726 15.5511 60.5476 15.321C60.4226 15.0881 60.2479 14.9048 60.0234 14.7713C59.8018 14.6378 59.5433 14.571 59.2479 14.571C58.9325 14.571 58.6555 14.6477 58.4169 14.8011C58.1783 14.9517 57.9922 15.1506 57.8587 15.3977C57.728 15.642 57.6612 15.9105 57.6584 16.2031V17.1108C57.6584 17.4915 57.728 17.8182 57.8672 18.0909C58.0064 18.3608 58.201 18.5682 58.451 18.7131C58.701 18.8551 58.9936 18.9261 59.3288 18.9261C59.5533 18.9261 59.7564 18.8949 59.9382 18.8324C60.12 18.767 60.2777 18.6719 60.4112 18.5469C60.5447 18.4219 60.6456 18.267 60.7138 18.0824L62.1541 18.2443C62.0632 18.625 61.8899 18.9574 61.6342 19.2415C61.3814 19.5227 61.0575 19.7415 60.6626 19.8977C60.2678 20.0511 59.8161 20.1278 59.3075 20.1278ZM69.815 13.4545V14.6477H65.9457V13.4545H69.815ZM66.913 20V12.8366C66.913 12.3963 67.0039 12.0298 67.1857 11.7372C67.3704 11.4446 67.6175 11.2259 67.9272 11.081C68.2369 10.9361 68.5806 10.8636 68.9585 10.8636C69.2255 10.8636 69.4627 10.8849 69.6701 10.9276C69.8775 10.9702 70.0309 11.0085 70.1303 11.0426L69.8235 12.2358C69.7582 12.2159 69.6758 12.196 69.5763 12.1761C69.4769 12.1534 69.3661 12.142 69.244 12.142C68.957 12.142 68.7539 12.2116 68.6346 12.3509C68.5181 12.4872 68.4599 12.6832 68.4599 12.9389V20H66.913ZM71.0231 20V13.4545H72.5657V20H71.0231ZM71.7987 12.5256C71.5543 12.5256 71.3441 12.4446 71.168 12.2827C70.9918 12.1179 70.9038 11.9205 70.9038 11.6903C70.9038 11.4574 70.9918 11.2599 71.168 11.098C71.3441 10.9332 71.5543 10.8509 71.7987 10.8509C72.0458 10.8509 72.256 10.9332 72.4293 11.098C72.6055 11.2599 72.6935 11.4574 72.6935 11.6903C72.6935 11.9205 72.6055 12.1179 72.4293 12.2827C72.256 12.4446 72.0458 12.5256 71.7987 12.5256ZM77.0497 20.1278C76.3935 20.1278 75.8267 19.9915 75.3494 19.7188C74.875 19.4432 74.5099 19.054 74.2543 18.5511C73.9986 18.0455 73.8707 17.4503 73.8707 16.7656C73.8707 16.0923 73.9986 15.5014 74.2543 14.9929C74.5128 14.4815 74.8736 14.0838 75.3366 13.7997C75.7997 13.5128 76.3438 13.3693 76.9688 13.3693C77.3722 13.3693 77.7528 13.4347 78.1108 13.5653C78.4716 13.6932 78.7898 13.892 79.0653 14.1619C79.3438 14.4318 79.5625 14.7756 79.7216 15.1932C79.8807 15.608 79.9602 16.1023 79.9602 16.6761V17.1491H74.5952V16.1094H78.4815C78.4787 15.8139 78.4148 15.5511 78.2898 15.321C78.1648 15.0881 77.9901 14.9048 77.7656 14.7713C77.544 14.6378 77.2855 14.571 76.9901 14.571C76.6747 14.571 76.3977 14.6477 76.1591 14.8011C75.9205 14.9517 75.7344 15.1506 75.6009 15.3977C75.4702 15.642 75.4034 15.9105 75.4006 16.2031V17.1108C75.4006 17.4915 75.4702 17.8182 75.6094 18.0909C75.7486 18.3608 75.9432 18.5682 76.1932 18.7131C76.4432 18.8551 76.7358 18.9261 77.071 18.9261C77.2955 18.9261 77.4986 18.8949 77.6804 18.8324C77.8622 18.767 78.0199 18.6719 78.1534 18.5469C78.2869 18.4219 78.3878 18.267 78.456 18.0824L79.8963 18.2443C79.8054 18.625 79.6321 18.9574 79.3764 19.2415C79.1236 19.5227 78.7997 19.7415 78.4048 19.8977C78.0099 20.0511 77.5582 20.1278 77.0497 20.1278ZM82.8079 11.2727V20H81.2653V11.2727H82.8079ZM86.8232 20.1151C86.3089 20.1151 85.8487 19.983 85.4425 19.7188C85.0362 19.4545 84.7152 19.071 84.4794 18.5682C84.2436 18.0653 84.1257 17.4545 84.1257 16.7358C84.1257 16.0085 84.245 15.3949 84.4837 14.8949C84.7251 14.392 85.0504 14.0128 85.4595 13.7571C85.8686 13.4986 86.3246 13.3693 86.8274 13.3693C87.2109 13.3693 87.5263 13.4347 87.7734 13.5653C88.0206 13.6932 88.2166 13.848 88.3615 14.0298C88.5064 14.2088 88.6186 14.3778 88.6982 14.5369H88.7621V11.2727H90.3089V20H88.7919V18.9688H88.6982C88.6186 19.1278 88.5036 19.2969 88.353 19.4759C88.2024 19.652 88.0036 19.8026 87.7564 19.9276C87.5092 20.0526 87.1982 20.1151 86.8232 20.1151ZM87.2536 18.8494C87.5803 18.8494 87.8587 18.7614 88.0888 18.5852C88.3189 18.4062 88.4936 18.1577 88.6129 17.8395C88.7322 17.5213 88.7919 17.1506 88.7919 16.7273C88.7919 16.304 88.7322 15.9361 88.6129 15.6236C88.4964 15.3111 88.3232 15.0682 88.093 14.8949C87.8658 14.7216 87.5859 14.6349 87.2536 14.6349C86.9098 14.6349 86.6229 14.7244 86.3928 14.9034C86.1626 15.0824 85.9893 15.3295 85.8729 15.6449C85.7564 15.9602 85.6982 16.321 85.6982 16.7273C85.6982 17.1364 85.7564 17.5014 85.8729 17.8224C85.9922 18.1406 86.1669 18.392 86.397 18.5767C86.63 18.7585 86.9155 18.8494 87.2536 18.8494ZM97.1261 15.1847L95.7198 15.3381C95.68 15.196 95.6104 15.0625 95.511 14.9375C95.4144 14.8125 95.2837 14.7116 95.119 14.6349C94.9542 14.5582 94.7525 14.5199 94.5138 14.5199C94.1928 14.5199 93.9229 14.5895 93.7042 14.7287C93.4883 14.8679 93.3817 15.0483 93.3846 15.2699C93.3817 15.4602 93.4513 15.6151 93.5934 15.7344C93.7383 15.8537 93.9769 15.9517 94.3093 16.0284L95.4258 16.267C96.0451 16.4006 96.5053 16.6122 96.8065 16.902C97.1104 17.1918 97.2638 17.571 97.2667 18.0398C97.2638 18.4517 97.1431 18.8153 96.9045 19.1307C96.6687 19.4432 96.3406 19.6875 95.9201 19.8636C95.4996 20.0398 95.0167 20.1278 94.4712 20.1278C93.6701 20.1278 93.0252 19.9602 92.5366 19.625C92.0479 19.2869 91.7567 18.8168 91.663 18.2145L93.1673 18.0696C93.2354 18.3651 93.3803 18.5881 93.6019 18.7386C93.8235 18.8892 94.1119 18.9645 94.467 18.9645C94.8335 18.9645 95.1275 18.8892 95.3491 18.7386C95.5735 18.5881 95.6857 18.402 95.6857 18.1804C95.6857 17.9929 95.6133 17.8381 95.4684 17.7159C95.3263 17.5937 95.1048 17.5 94.8036 17.4347L93.6871 17.2003C93.0593 17.0696 92.5948 16.8494 92.2937 16.5398C91.9925 16.2273 91.8434 15.8324 91.8462 15.3551C91.8434 14.9517 91.9528 14.6023 92.1744 14.3068C92.3988 14.0085 92.7099 13.7784 93.1076 13.6165C93.5082 13.4517 93.9698 13.3693 94.4925 13.3693C95.2596 13.3693 95.8633 13.5327 96.3036 13.8594C96.7468 14.1861 97.021 14.6278 97.1261 15.1847Z" fill="#4397FA"/>
</svg>
