<svg width="56" height="56" viewBox="0 0 56 56" fill="none" xmlns="http://www.w3.org/2000/svg">
<rect x="0.5" y="0.5" width="55" height="55" rx="4.5" stroke="#9747FF" stroke-dasharray="10 5"/>
<path d="M21 22C21 21.4477 21.4477 21 22 21H34C34.5523 21 35 21.4477 35 22V34C35 34.5523 34.5523 35 34 35H22C21.4477 35 21 34.5523 21 34V22ZM23.5556 22.5556C23.0033 22.5556 22.5556 23.0033 22.5556 23.5556V32.4444C22.5556 32.9967 23.0033 33.4444 23.5556 33.4444H32.4444C32.9967 33.4444 33.4444 32.9967 33.4444 32.4444V23.5556C33.4444 23.0033 32.9967 22.5556 32.4444 22.5556H23.5556ZM24.1111 25.1111C24.1111 24.5588 24.5588 24.1111 25.1111 24.1111H26.2222C26.7745 24.1111 27.2222 24.5588 27.2222 25.1111V26.2222C27.2222 26.7745 26.7745 27.2222 26.2222 27.2222H25.1111C24.5588 27.2222 24.1111 26.7745 24.1111 26.2222V25.1111ZM28.7778 25.1111C28.7778 24.5588 29.2255 24.1111 29.7778 24.1111H30.8889C31.4412 24.1111 31.8889 24.5588 31.8889 25.1111V26.2222C31.8889 26.7745 31.4412 27.2222 30.8889 27.2222H29.7778C29.2255 27.2222 28.7778 26.7745 28.7778 26.2222V25.1111ZM24.1111 29.7778C24.1111 29.2255 24.5588 28.7778 25.1111 28.7778H26.2222C26.7745 28.7778 27.2222 29.2255 27.2222 29.7778V30.8889C27.2222 31.4412 26.7745 31.8889 26.2222 31.8889H25.1111C24.5588 31.8889 24.1111 31.4412 24.1111 30.8889V29.7778ZM28.7778 29.7778C28.7778 29.2255 29.2255 28.7778 29.7778 28.7778H30.8889C31.4412 28.7778 31.8889 29.2255 31.8889 29.7778V30.8889C31.8889 31.4412 31.4412 31.8889 30.8889 31.8889H29.7778C29.2255 31.8889 28.7778 31.4412 28.7778 30.8889V29.7778Z" fill="#545C6E"/>
</svg>
