<svg width="16" height="16" viewBox="0 0 16 16" fill="none" xmlns="http://www.w3.org/2000/svg">
<path d="M8.0013 6C8.53174 6 9.04044 6.21071 9.41552 6.58579C9.79059 6.96086 10.0013 7.46957 10.0013 8C10.0013 8.53043 9.79059 9.03914 9.41552 9.41421C9.04044 9.78929 8.53174 10 8.0013 10C7.47087 10 6.96216 9.78929 6.58709 9.41421C6.21202 9.03914 6.0013 8.53043 6.0013 8C6.0013 7.46957 6.21202 6.96086 6.58709 6.58579C6.96216 6.21071 7.47087 6 8.0013 6ZM8.0013 3C11.3346 3 14.1813 5.07333 15.3346 8C14.1813 10.9267 11.3346 13 8.0013 13C4.66797 13 1.8213 10.9267 0.667969 8C1.8213 5.07333 4.66797 3 8.0013 3ZM2.1213 8C2.66014 9.1002 3.49684 10.0272 4.53629 10.6755C5.57574 11.3238 6.77623 11.6675 8.0013 11.6675C9.22637 11.6675 10.4269 11.3238 11.4663 10.6755C12.5058 10.0272 13.3425 9.1002 13.8813 8C13.3425 6.8998 12.5058 5.97283 11.4663 5.3245C10.4269 4.67616 9.22637 4.33245 8.0013 4.33245C6.77623 4.33245 5.57574 4.67616 4.53629 5.3245C3.49684 5.97283 2.66014 6.8998 2.1213 8Z" fill="#545C6E"/>
</svg>
