<svg width="142" height="82" viewBox="0 0 142 82" fill="none" xmlns="http://www.w3.org/2000/svg">
<rect x="0.5" y="0.5" width="141" height="81" rx="4.5" stroke="#9747FF" stroke-dasharray="10 5"/>
<path d="M79.152 40.992C79.152 44.884 76.1356 48.039 72.4149 48.039C68.6941 48.039 65.6777 44.884 65.6777 40.992C65.6777 37.1001 68.6941 33.9451 72.4149 33.9451C76.1356 33.9451 79.152 37.1001 79.152 40.992Z" stroke="#FF7373" stroke-width="2"/>
<path d="M72.4154 44.5155C74.2758 44.5155 75.784 42.9379 75.784 40.992C75.784 39.046 74.2758 37.4685 72.4154 37.4685C70.555 37.4685 69.0469 39.046 69.0469 40.992C69.0469 42.9379 70.555 44.5155 72.4154 44.5155Z" fill="#FF7373"/>
<path d="M88.344 45.2626H92.7096V47.5458H85.6113V35.2249H88.344V45.2626ZM96.987 47.5458H94.2383V35.2249H96.987V47.5458ZM100.614 35.2249C100.733 35.2249 100.833 35.2305 100.913 35.2418C100.994 35.253 101.067 35.2756 101.132 35.3094C101.196 35.3376 101.258 35.3799 101.318 35.4363C101.377 35.4926 101.444 35.5687 101.52 35.6646L107.114 43.0639C107.093 42.8271 107.077 42.5988 107.066 42.3789C107.055 42.1534 107.05 41.942 107.05 41.7447V35.2249H109.459V47.5458H108.036C107.826 47.5458 107.648 47.512 107.502 47.4443C107.357 47.3767 107.217 47.2526 107.082 47.0722L101.528 39.7321C101.544 39.9463 101.557 40.1577 101.568 40.3663C101.579 40.5693 101.584 40.761 101.584 40.9414V47.5458H99.1752V35.2249H100.614ZM114.129 40.2141H114.566C114.97 40.2141 115.261 40.0816 115.439 39.8167L118.09 35.7914C118.236 35.5716 118.4 35.4222 118.584 35.3432C118.772 35.2643 119.001 35.2249 119.271 35.2249H121.648L118.155 40.2057C118.031 40.3861 117.902 40.5355 117.767 40.6538C117.632 40.7722 117.495 40.8709 117.355 40.9498C117.559 41.0287 117.745 41.1387 117.913 41.2796C118.085 41.4149 118.241 41.5981 118.381 41.8293L121.939 47.5458H119.497C119.341 47.5458 119.206 47.5345 119.093 47.512C118.985 47.4894 118.891 47.4556 118.81 47.4105C118.729 47.3654 118.659 47.3118 118.6 47.2498C118.54 47.1822 118.484 47.1061 118.43 47.0215L115.762 42.7341C115.665 42.5763 115.541 42.4663 115.39 42.4043C115.245 42.3367 115.045 42.3028 114.792 42.3028H114.129V47.5458H111.396V35.2249H114.129V40.2141Z" fill="#545C6E"/>
<path d="M23.7189 45.2626H28.0845V47.5458H20.9863V35.2249H23.7189V45.2626ZM36.9542 35.2249V37.4236H32.1196V40.2987H35.8223V42.4128H32.1196V45.3472H36.9542V47.5458H29.3709V35.2249H36.9542ZM47.0668 35.2249V37.4912H43.7521V47.5458H41.0195V37.4912H37.7049V35.2249H47.0668ZM59.3288 41.3811C59.3288 42.2719 59.1806 43.1006 58.8842 43.8673C58.5931 44.634 58.1808 45.3021 57.6472 45.8715C57.1137 46.4352 56.4696 46.8778 55.715 47.1991C54.9659 47.5205 54.1332 47.6811 53.2169 47.6811C52.3007 47.6811 51.4653 47.5205 50.7107 47.1991C49.9561 46.8778 49.3094 46.4352 48.7704 45.8715C48.2368 45.3021 47.8218 44.634 47.5254 43.8673C47.2343 43.1006 47.0888 42.2719 47.0888 41.3811C47.0888 40.4904 47.2343 39.6617 47.5254 38.895C47.8218 38.1283 48.2368 37.463 48.7704 36.8993C49.3094 36.3355 49.9561 35.893 50.7107 35.5716C51.4653 35.2503 52.3007 35.0896 53.2169 35.0896C54.1332 35.0896 54.9659 35.2531 55.715 35.5801C56.4696 35.9014 57.1137 36.344 57.6472 36.9077C58.1808 37.4715 58.5931 38.1367 58.8842 38.9034C59.1806 39.6701 59.3288 40.496 59.3288 41.3811ZM56.5316 41.3811C56.5316 40.7723 56.4561 40.2254 56.3052 39.7406C56.1543 39.2501 55.936 38.8358 55.6503 38.4975C55.3701 38.1593 55.0251 37.8999 54.6155 37.7195C54.2059 37.5391 53.7397 37.4489 53.2169 37.4489C52.6887 37.4489 52.2171 37.5391 51.8021 37.7195C51.3925 37.8999 51.0449 38.1593 50.7592 38.4975C50.4789 38.8358 50.2633 39.2501 50.1124 39.7406C49.9615 40.2254 49.8861 40.7723 49.8861 41.3811C49.8861 41.9956 49.9615 42.5481 50.1124 43.0386C50.2633 43.5234 50.4789 43.935 50.7592 44.2732C51.0449 44.6115 51.3925 44.8708 51.8021 45.0512C52.2171 45.226 52.6887 45.3134 53.2169 45.3134C53.7397 45.3134 54.2059 45.226 54.6155 45.0512C55.0251 44.8708 55.3701 44.6115 55.6503 44.2732C55.936 43.935 56.1543 43.5234 56.3052 43.0386C56.4561 42.5481 56.5316 41.9956 56.5316 41.3811Z" fill="#545C6E"/>
<path d="M64.0822 55.601L61.8867 53.9664L65.0123 49.3735L67.2078 51.0082L64.0822 55.601Z" fill="#FF7373"/>
<path d="M60.6556 58.2331C59.14 57.1047 58.7859 54.9047 59.8648 53.3193C60.9436 51.734 63.0469 51.3636 64.5626 52.4921C66.0781 53.6206 66.4322 55.8206 65.3534 57.4059C64.2745 58.9913 62.1712 59.3616 60.6556 58.2331Z" fill="#FF7373"/>
<path d="M82.9149 53.9211L80.726 55.5654L77.582 50.9863L79.7709 49.342L82.9149 53.9211Z" fill="#FF7373"/>
<path d="M85.367 59.8813C83.8559 61.0164 81.7512 60.6553 80.666 59.0747C79.5807 57.4941 79.926 55.2926 81.437 54.1574C82.9482 53.0223 85.0529 53.3834 86.1381 54.964C87.2234 56.5446 86.8781 58.7462 85.367 59.8813Z" fill="#FF7373"/>
<path d="M80.7291 26.4536L82.9245 28.0882L79.7989 32.6811L77.6035 31.0464L80.7291 26.4536Z" fill="#FF7373"/>
<path d="M84.1563 23.8215C85.6719 24.95 86.026 27.1499 84.9471 28.7353C83.8682 30.3206 81.765 30.691 80.2494 29.5625C78.7337 28.434 78.3796 26.234 79.4585 24.6487C80.5374 23.0633 82.6407 22.693 84.1563 23.8215Z" fill="#FF7373"/>
<path d="M61.8848 28.0683L64.0737 26.4241L67.2176 31.0031L65.0287 32.6474L61.8848 28.0683Z" fill="#FF7373"/>
<path d="M59.4332 22.1084C60.9442 20.9732 63.049 21.3344 64.1342 22.915C65.2194 24.4955 64.8742 26.6971 63.363 27.8322C61.852 28.9673 59.7472 28.6062 58.662 27.0256C57.5768 25.445 57.9221 23.2435 59.4332 22.1084Z" fill="#FF7373"/>
</svg>
