<svg width="72" height="124" viewBox="0 0 72 124" fill="none" xmlns="http://www.w3.org/2000/svg">
<rect x="0.5" y="0.5" width="71" height="123" rx="4.5" stroke="#9747FF" stroke-dasharray="10 5"/>
<circle cx="36" cy="36" r="16" fill="#4397FA"/>
<path d="M30 41.25V39.75H31.5V34.5C31.5 33.4625 31.8125 32.5408 32.4375 31.7348C33.0625 30.9288 33.875 30.4005 34.875 30.15V29.625C34.875 29.3125 34.9845 29.047 35.2035 28.8285C35.4225 28.61 35.688 28.5005 36 28.5C36.312 28.4995 36.5777 28.609 36.7972 28.8285C37.0167 29.048 37.126 29.3135 37.125 29.625V30.15C38.125 30.4 38.9375 30.9283 39.5625 31.7348C40.1875 32.5413 40.5 33.463 40.5 34.5V39.75H42V41.25H30ZM36 43.5C35.5875 43.5 35.2345 43.3533 34.941 43.0598C34.6475 42.7663 34.5005 42.413 34.5 42H37.5C37.5 42.4125 37.3533 42.7658 37.0598 43.0598C36.7663 43.3538 36.413 43.5005 36 43.5ZM33 39.75H39V34.5C39 33.675 38.7063 32.9688 38.1187 32.3813C37.5312 31.7938 36.825 31.5 36 31.5C35.175 31.5 34.4688 31.7938 33.8813 32.3813C33.2938 32.9688 33 33.675 33 34.5V39.75Z" fill="#F3FCFF"/>
<circle cx="48" cy="24" r="4" fill="#FF1C1C"/>
<circle cx="36" cy="88" r="16" fill="#1456A5"/>
<path d="M30 93.25V91.75H31.5V86.5C31.5 85.4625 31.8125 84.5408 32.4375 83.7348C33.0625 82.9288 33.875 82.4005 34.875 82.15V81.625C34.875 81.3125 34.9845 81.047 35.2035 80.8285C35.4225 80.61 35.688 80.5005 36 80.5C36.312 80.4995 36.5777 80.609 36.7972 80.8285C37.0167 81.048 37.126 81.3135 37.125 81.625V82.15C38.125 82.4 38.9375 82.9283 39.5625 83.7348C40.1875 84.5413 40.5 85.463 40.5 86.5V91.75H42V93.25H30ZM36 95.5C35.5875 95.5 35.2345 95.3533 34.941 95.0598C34.6475 94.7663 34.5005 94.413 34.5 94H37.5C37.5 94.4125 37.3533 94.7658 37.0598 95.0598C36.7663 95.3538 36.413 95.5005 36 95.5ZM33 91.75H39V86.5C39 85.675 38.7063 84.9688 38.1187 84.3813C37.5312 83.7938 36.825 83.5 36 83.5C35.175 83.5 34.4688 83.7938 33.8813 84.3813C33.2938 84.9688 33 85.675 33 86.5V91.75Z" fill="#F3FCFF"/>
<circle cx="48" cy="76" r="4" fill="#FF1C1C"/>
</svg>
